<?xml version="1.0" encoding="UTF-8" standalone="no"?>
<svg
   xmlns:dc="http://purl.org/dc/elements/1.1/"
   xmlns:cc="http://creativecommons.org/ns#"
   xmlns:rdf="http://www.w3.org/1999/02/22-rdf-syntax-ns#"
   xmlns:svg="http://www.w3.org/2000/svg"
   xmlns="http://www.w3.org/2000/svg"
   xmlns:sodipodi="http://sodipodi.sourceforge.net/DTD/sodipodi-0.dtd"
   xmlns:inkscape="http://www.inkscape.org/namespaces/inkscape"
   width="7mm"
   height="6.5714283mm"
   viewBox="0 0 7 6.5714283"
   version="1.1"
   id="svg1102"
   inkscape:version="1.0.2-2 (e86c870879, 2021-01-15)"
   sodipodi:docname="instagram..svg">
  <defs
     id="defs1096" />
  <sodipodi:namedview
     id="base"
     pagecolor="#ffffff"
     bordercolor="#666666"
     borderopacity="1.0"
     inkscape:pageopacity="0.0"
     inkscape:pageshadow="2"
     inkscape:zoom="7.9195959"
     inkscape:cx="32.178052"
     inkscape:cy="12.72975"
     inkscape:document-units="mm"
     inkscape:current-layer="layer1"
     inkscape:document-rotation="0"
     showgrid="false"
     inkscape:window-width="1298"
     inkscape:window-height="1040"
     inkscape:window-x="130"
     inkscape:window-y="0"
     inkscape:window-maximized="0" />
  <metadata
     id="metadata1099">
    <rdf:RDF>
      <cc:Work
         rdf:about="">
        <dc:format>image/svg+xml</dc:format>
        <dc:type
           rdf:resource="http://purl.org/dc/dcmitype/StillImage" />
        <dc:title></dc:title>
      </cc:Work>
    </rdf:RDF>
  </metadata>
  <g
     inkscape:label="Capa 1"
     inkscape:groupmode="layer"
     id="layer1"
     transform="translate(-153.54166,-47.166654)">
    <g
       id="g1081"
       transform="matrix(0.51720928,0,0,0.51720928,105.7483,0.09690026)">
      <rect
         style="fill:#e4405f;fill-opacity:1;stroke-width:0.546863"
         id="rect1046"
         width="13.534173"
         height="12.70555"
         x="92.406235"
         y="91.007172"
         ry="3.1073356" />
      <path
         d="m 99.173304,91.833332 c -1.501385,0 -1.688825,0.0067 -2.278332,0.03318 -0.58858,0.02762 -0.989256,0.120202 -1.341576,0.256987 -0.363377,0.140927 -0.671937,0.330212 -0.979125,0.6374 -0.307188,0.307179 -0.496936,0.615285 -0.6374,0.979125 -0.136785,0.35232 -0.22981,0.752996 -0.256987,1.341576 -0.02762,0.589499 -0.03318,0.776947 -0.03318,2.278329 0,1.501385 0.0067,1.688836 0.03318,2.278336 0.02762,0.588135 0.120202,0.989275 0.256987,1.341585 0.140927,0.36291 0.330212,0.67194 0.6374,0.97913 0.307188,0.30672 0.615294,0.49693 0.979125,0.6374 0.352783,0.13632 0.753459,0.22981 1.341576,0.25698 0.589507,0.0276 0.776947,0.0332 2.278332,0.0332 1.501396,0 1.688836,-0.007 2.278346,-0.0332 0.58812,-0.0276 0.98926,-0.12066 1.34158,-0.25698 0.36291,-0.14093 0.67193,-0.33068 0.97912,-0.6374 0.30673,-0.30719 0.49694,-0.61484 0.6374,-0.97913 0.13632,-0.35231 0.22981,-0.75345 0.25699,-1.341585 0.0276,-0.5895 0.0332,-0.776951 0.0332,-2.278336 0,-1.501382 -0.007,-1.68883 -0.0332,-2.278329 -0.0276,-0.588125 -0.12067,-0.989719 -0.25699,-1.341576 -0.14092,-0.363377 -0.33067,-0.671946 -0.6374,-0.979125 -0.30719,-0.307188 -0.61483,-0.496936 -0.97912,-0.6374 -0.35232,-0.136785 -0.75346,-0.229818 -1.34158,-0.256987 -0.58951,-0.02762 -0.77695,-0.03318 -2.278346,-0.03318 z m 0,0.99479 c 1.475146,0 1.651076,0.0076 2.233666,0.03268 0.53885,0.02535 0.8313,0.114677 1.02564,0.191129 0.25883,0.09994 0.44213,0.219687 0.63648,0.412652 0.19298,0.193437 0.31272,0.377188 0.41266,0.636019 0.0755,0.194355 0.16579,0.486796 0.1902,1.025638 0.0263,0.583056 0.0323,0.758066 0.0323,2.23366 0,1.475598 -0.007,1.651065 -0.0341,2.233665 -0.0281,0.538845 -0.11791,0.831295 -0.19389,1.025645 -0.10317,0.25883 -0.22061,0.44212 -0.41404,0.63648 -0.19297,0.19296 -0.37949,0.31271 -0.63555,0.41265 -0.19344,0.0755 -0.49049,0.1658 -1.02933,0.1902 -0.58675,0.0263 -0.75945,0.0323 -2.237814,0.0323 -1.478823,0 -1.651526,-0.007 -2.237807,-0.0341 -0.539305,-0.0281 -0.836353,-0.11789 -1.02979,-0.19389 -0.262048,-0.10316 -0.442119,-0.2206 -0.635093,-0.41403 -0.193891,-0.19297 -0.317782,-0.37949 -0.414496,-0.63556 -0.07596,-0.19343 -0.165334,-0.49048 -0.193428,-1.029335 -0.02072,-0.58028 -0.02813,-0.759434 -0.02813,-2.230889 0,-1.471914 0.0076,-1.651522 0.02813,-2.238721 0.02813,-0.538842 0.117439,-0.835436 0.193428,-1.028872 0.09671,-0.262511 0.220605,-0.44212 0.414496,-0.636011 0.192974,-0.192974 0.373045,-0.317319 0.635093,-0.413579 0.193437,-0.07647 0.484042,-0.166251 1.022884,-0.193891 0.587199,-0.02072 0.759902,-0.02762 2.237807,-0.02762 z m 0,1.693895 c -1.56816,0 -2.837899,1.271112 -2.837899,2.837896 0,1.568169 1.27112,2.837907 2.837899,2.837907 1.568176,0 2.837916,-1.271119 2.837916,-2.837907 0,-1.568165 -1.27112,-2.837896 -2.837916,-2.837896 z m 0,4.680088 c -1.017805,0 -1.842192,-0.824377 -1.842192,-1.842192 0,-1.017814 0.824387,-1.842188 1.842192,-1.842188 1.017816,0 1.842206,0.824374 1.842206,1.842188 0,1.017815 -0.82439,1.842192 -1.842206,1.842192 z m 3.613476,-4.792003 c 0,0.366139 -0.29752,0.663196 -0.66319,0.663196 -0.36614,0 -0.66319,-0.29752 -0.66319,-0.663196 0,-0.365676 0.29751,-0.662724 0.66319,-0.662724 0.36521,-4.64e-4 0.66319,0.297048 0.66319,0.662724 z"
         id="path1068"
         style="fill:#ffffff;stroke-width:0.460548" />
    </g>
  </g>
</svg>
